<mxfile host="Electron" modified="2024-02-07T05:16:33.808Z" agent="Mozilla/5.0 (Windows NT 10.0; Win64; x64) AppleWebKit/537.36 (KHTML, like Gecko) draw.io/23.0.2 Chrome/120.0.6099.109 Electron/28.1.0 Safari/537.36" etag="4jwzs3IUY6xVKIgHRVjw" version="23.0.2" type="device">
  <diagram name="Page-1" id="jriZFzb10LXwvt7Sf56n">
    <mxGraphModel dx="1102" dy="702" grid="1" gridSize="10" guides="1" tooltips="1" connect="1" arrows="1" fold="1" page="1" pageScale="1" pageWidth="850" pageHeight="1100" math="0" shadow="0">
      <root>
        <mxCell id="0" />
        <mxCell id="1" parent="0" />
        <mxCell id="SZQu4tv_5W4Lhm11n2Mp-5" value="转换工具&lt;br&gt;convert.py" style="text;html=1;strokeColor=none;fillColor=none;align=center;verticalAlign=middle;whiteSpace=wrap;rounded=0;" vertex="1" parent="1">
          <mxGeometry x="150" y="320" width="60" height="30" as="geometry" />
        </mxCell>
        <mxCell id="SZQu4tv_5W4Lhm11n2Mp-8" value="量化工具&lt;br&gt;quantize.exe" style="text;html=1;strokeColor=none;fillColor=none;align=center;verticalAlign=middle;whiteSpace=wrap;rounded=0;" vertex="1" parent="1">
          <mxGeometry x="350" y="320" width="60" height="30" as="geometry" />
        </mxCell>
        <mxCell id="SZQu4tv_5W4Lhm11n2Mp-12" style="edgeStyle=orthogonalEdgeStyle;rounded=0;orthogonalLoop=1;jettySize=auto;html=1;exitX=1;exitY=0.5;exitDx=0;exitDy=0;entryX=0;entryY=0.5;entryDx=0;entryDy=0;" edge="1" parent="1" source="SZQu4tv_5W4Lhm11n2Mp-9" target="SZQu4tv_5W4Lhm11n2Mp-10">
          <mxGeometry relative="1" as="geometry" />
        </mxCell>
        <mxCell id="SZQu4tv_5W4Lhm11n2Mp-9" value="原始模型&lt;br style=&quot;border-color: var(--border-color);&quot;&gt;(Transformer)" style="shape=parallelogram;perimeter=parallelogramPerimeter;whiteSpace=wrap;html=1;fixedSize=1;fillColor=#ffe6cc;strokeColor=#d79b00;" vertex="1" parent="1">
          <mxGeometry x="10" y="320" width="120" height="60" as="geometry" />
        </mxCell>
        <mxCell id="SZQu4tv_5W4Lhm11n2Mp-13" style="edgeStyle=orthogonalEdgeStyle;rounded=0;orthogonalLoop=1;jettySize=auto;html=1;exitX=1;exitY=0.5;exitDx=0;exitDy=0;entryX=0;entryY=0.5;entryDx=0;entryDy=0;" edge="1" parent="1" source="SZQu4tv_5W4Lhm11n2Mp-10" target="SZQu4tv_5W4Lhm11n2Mp-11">
          <mxGeometry relative="1" as="geometry" />
        </mxCell>
        <mxCell id="SZQu4tv_5W4Lhm11n2Mp-10" value="GGML模型" style="shape=parallelogram;perimeter=parallelogramPerimeter;whiteSpace=wrap;html=1;fixedSize=1;fillColor=#dae8fc;strokeColor=#6c8ebf;" vertex="1" parent="1">
          <mxGeometry x="220" y="320" width="120" height="60" as="geometry" />
        </mxCell>
        <mxCell id="SZQu4tv_5W4Lhm11n2Mp-11" value="量化后的&lt;br&gt;GGML模型&lt;br&gt;&lt;font style=&quot;font-size: 10px;&quot;&gt;(GGUF格式）&lt;/font&gt;" style="shape=parallelogram;perimeter=parallelogramPerimeter;whiteSpace=wrap;html=1;fixedSize=1;fillColor=#d5e8d4;strokeColor=#82b366;" vertex="1" parent="1">
          <mxGeometry x="420" y="320" width="120" height="60" as="geometry" />
        </mxCell>
      </root>
    </mxGraphModel>
  </diagram>
</mxfile>
